<svg width="1080" height="1080" viewBox="0 0 1080 1080" fill="none" xmlns="http://www.w3.org/2000/svg">
<rect width="1080" height="1080" fill="#273F87"/>
<path d="M184.434 701.712C184.434 699.269 184.997 697.078 186.123 695.139C187.272 693.199 188.816 691.691 190.756 690.613C192.72 689.512 194.863 688.961 197.185 688.961C199.843 688.961 202.202 689.619 204.261 690.936C206.344 692.229 207.853 694.073 208.787 696.468H203.866C203.22 695.151 202.322 694.169 201.172 693.522C200.023 692.876 198.694 692.553 197.185 692.553C195.533 692.553 194.06 692.924 192.767 693.666C191.474 694.408 190.457 695.474 189.714 696.863C188.996 698.252 188.637 699.868 188.637 701.712C188.637 703.555 188.996 705.172 189.714 706.561C190.457 707.949 191.474 709.027 192.767 709.793C194.06 710.536 195.533 710.907 197.185 710.907C198.694 710.907 200.023 710.583 201.172 709.937C202.322 709.29 203.22 708.309 203.866 706.992H208.787C207.853 709.386 206.344 711.23 204.261 712.523C202.202 713.816 199.843 714.463 197.185 714.463C194.839 714.463 192.696 713.924 190.756 712.846C188.816 711.745 187.272 710.224 186.123 708.285C184.997 706.345 184.434 704.154 184.434 701.712ZM217.674 697.33C218.273 696.324 219.063 695.546 220.045 694.995C221.051 694.42 222.236 694.133 223.601 694.133V698.371H222.559C220.955 698.371 219.734 698.778 218.896 699.593C218.081 700.407 217.674 701.819 217.674 703.831V714.247H213.58V694.456H217.674V697.33ZM226 704.262C226 702.274 226.407 700.514 227.221 698.982C228.059 697.449 229.184 696.264 230.597 695.426C232.034 694.564 233.614 694.133 235.338 694.133C236.895 694.133 238.248 694.444 239.397 695.067C240.57 695.665 241.504 696.42 242.199 697.33V694.456H246.329V714.247H242.199V711.302C241.504 712.236 240.559 713.014 239.361 713.636C238.164 714.259 236.799 714.57 235.267 714.57C233.566 714.57 232.01 714.139 230.597 713.277C229.184 712.391 228.059 711.17 227.221 709.614C226.407 708.033 226 706.249 226 704.262ZM242.199 704.334C242.199 702.969 241.911 701.784 241.337 700.778C240.786 699.772 240.056 699.006 239.146 698.479C238.236 697.952 237.254 697.689 236.2 697.689C235.147 697.689 234.165 697.952 233.255 698.479C232.345 698.982 231.603 699.736 231.028 700.742C230.478 701.724 230.202 702.897 230.202 704.262C230.202 705.627 230.478 706.824 231.028 707.854C231.603 708.883 232.345 709.674 233.255 710.224C234.189 710.751 235.171 711.014 236.2 711.014C237.254 711.014 238.236 710.751 239.146 710.224C240.056 709.697 240.786 708.931 241.337 707.925C241.911 706.896 242.199 705.699 242.199 704.334ZM260.005 697.797H256.341V714.247H252.21V697.797H249.876V694.456H252.21V693.055C252.21 690.781 252.809 689.128 254.006 688.099C255.227 687.045 257.131 686.518 259.717 686.518V689.931C258.472 689.931 257.598 690.17 257.095 690.649C256.592 691.104 256.341 691.906 256.341 693.055V694.456H260.005V697.797ZM268.411 697.797V708.752C268.411 709.494 268.578 710.033 268.913 710.368C269.273 710.679 269.871 710.835 270.709 710.835H273.224V714.247H269.991C268.147 714.247 266.734 713.816 265.753 712.954C264.771 712.092 264.28 710.691 264.28 708.752V697.797H261.945V694.456H264.28V689.535H268.411V694.456H273.224V697.797H268.411ZM279.081 691.834C278.338 691.834 277.716 691.583 277.213 691.08C276.71 690.577 276.459 689.955 276.459 689.212C276.459 688.47 276.71 687.847 277.213 687.344C277.716 686.842 278.338 686.59 279.081 686.59C279.799 686.59 280.41 686.842 280.912 687.344C281.415 687.847 281.667 688.47 281.667 689.212C281.667 689.955 281.415 690.577 280.912 691.08C280.41 691.583 279.799 691.834 279.081 691.834ZM281.092 694.456V714.247H276.997V694.456H281.092ZM296.453 694.133C298.01 694.133 299.398 694.456 300.62 695.103C301.865 695.749 302.835 696.707 303.529 697.976C304.223 699.245 304.571 700.778 304.571 702.574V714.247H300.512V703.184C300.512 701.412 300.069 700.059 299.183 699.126C298.297 698.168 297.088 697.689 295.555 697.689C294.023 697.689 292.802 698.168 291.892 699.126C291.006 700.059 290.563 701.412 290.563 703.184V714.247H286.468V694.456H290.563V696.719C291.233 695.905 292.083 695.27 293.113 694.815C294.166 694.36 295.28 694.133 296.453 694.133ZM317.767 694.133C319.3 694.133 320.653 694.444 321.826 695.067C323.023 695.665 323.957 696.42 324.628 697.33V694.456H328.758V714.57C328.758 716.39 328.375 718.006 327.609 719.419C326.843 720.856 325.729 721.981 324.269 722.796C322.832 723.61 321.108 724.017 319.096 724.017C316.415 724.017 314.188 723.382 312.416 722.113C310.644 720.868 309.638 719.168 309.399 717.013H313.457C313.769 718.042 314.427 718.869 315.433 719.491C316.462 720.138 317.684 720.461 319.096 720.461C320.749 720.461 322.078 719.958 323.083 718.952C324.113 717.947 324.628 716.486 324.628 714.57V711.266C323.933 712.2 322.988 712.99 321.79 713.636C320.617 714.259 319.276 714.57 317.767 714.57C316.043 714.57 314.463 714.139 313.026 713.277C311.614 712.391 310.488 711.17 309.65 709.614C308.836 708.033 308.429 706.249 308.429 704.262C308.429 702.274 308.836 700.514 309.65 698.982C310.488 697.449 311.614 696.264 313.026 695.426C314.463 694.564 316.043 694.133 317.767 694.133ZM324.628 704.334C324.628 702.969 324.34 701.784 323.766 700.778C323.215 699.772 322.485 699.006 321.575 698.479C320.665 697.952 319.683 697.689 318.63 697.689C317.576 697.689 316.594 697.952 315.684 698.479C314.774 698.982 314.032 699.736 313.457 700.742C312.907 701.724 312.631 702.897 312.631 704.262C312.631 705.627 312.907 706.824 313.457 707.854C314.032 708.883 314.774 709.674 315.684 710.224C316.618 710.751 317.6 711.014 318.63 711.014C319.683 711.014 320.665 710.751 321.575 710.224C322.485 709.697 323.215 708.931 323.766 707.925C324.34 706.896 324.628 705.699 324.628 704.334ZM342.102 701.712C342.102 699.269 342.665 697.078 343.79 695.139C344.939 693.199 346.484 691.691 348.424 690.613C350.387 689.512 352.53 688.961 354.853 688.961C357.511 688.961 359.869 689.619 361.929 690.936C364.012 692.229 365.521 694.073 366.454 696.468H361.534C360.887 695.151 359.989 694.169 358.84 693.522C357.69 692.876 356.361 692.553 354.853 692.553C353.201 692.553 351.728 692.924 350.435 693.666C349.142 694.408 348.124 695.474 347.382 696.863C346.664 698.252 346.304 699.868 346.304 701.712C346.304 703.555 346.664 705.172 347.382 706.561C348.124 707.949 349.142 709.027 350.435 709.793C351.728 710.536 353.201 710.907 354.853 710.907C356.361 710.907 357.69 710.583 358.84 709.937C359.989 709.29 360.887 708.309 361.534 706.992H366.454C365.521 709.386 364.012 711.23 361.929 712.523C359.869 713.816 357.511 714.463 354.853 714.463C352.506 714.463 350.363 713.924 348.424 712.846C346.484 711.745 344.939 710.224 343.79 708.285C342.665 706.345 342.102 704.154 342.102 701.712ZM379.832 714.57C377.964 714.57 376.276 714.151 374.767 713.313C373.259 712.451 372.073 711.254 371.211 709.721C370.349 708.165 369.918 706.369 369.918 704.334C369.918 702.322 370.361 700.538 371.247 698.982C372.133 697.425 373.342 696.228 374.875 695.39C376.407 694.552 378.119 694.133 380.011 694.133C381.903 694.133 383.615 694.552 385.147 695.39C386.68 696.228 387.889 697.425 388.775 698.982C389.661 700.538 390.104 702.322 390.104 704.334C390.104 706.345 389.649 708.129 388.739 709.685C387.829 711.242 386.584 712.451 385.004 713.313C383.447 714.151 381.723 714.57 379.832 714.57ZM379.832 711.014C380.885 711.014 381.867 710.763 382.777 710.26C383.711 709.757 384.465 709.003 385.04 707.997C385.614 706.992 385.902 705.77 385.902 704.334C385.902 702.897 385.626 701.688 385.076 700.706C384.525 699.7 383.795 698.946 382.885 698.443C381.975 697.94 380.993 697.689 379.939 697.689C378.886 697.689 377.904 697.94 376.994 698.443C376.108 698.946 375.402 699.7 374.875 700.706C374.348 701.688 374.085 702.897 374.085 704.334C374.085 706.465 374.623 708.117 375.701 709.29C376.802 710.44 378.179 711.014 379.832 711.014ZM404.137 694.133C405.694 694.133 407.082 694.456 408.304 695.103C409.549 695.749 410.519 696.707 411.213 697.976C411.907 699.245 412.255 700.778 412.255 702.574V714.247H408.196V703.184C408.196 701.412 407.753 700.059 406.867 699.126C405.981 698.168 404.772 697.689 403.239 697.689C401.707 697.689 400.485 698.168 399.576 699.126C398.69 700.059 398.247 701.412 398.247 703.184V714.247H394.152V694.456H398.247V696.719C398.917 695.905 399.767 695.27 400.797 694.815C401.85 694.36 402.964 694.133 404.137 694.133ZM427.463 694.133C429.019 694.133 430.408 694.456 431.629 695.103C432.874 695.749 433.844 696.707 434.539 697.976C435.233 699.245 435.58 700.778 435.58 702.574V714.247H431.522V703.184C431.522 701.412 431.079 700.059 430.193 699.126C429.307 698.168 428.097 697.689 426.565 697.689C425.032 697.689 423.811 698.168 422.901 699.126C422.015 700.059 421.572 701.412 421.572 703.184V714.247H417.478V694.456H421.572V696.719C422.243 695.905 423.093 695.27 424.122 694.815C425.176 694.36 426.289 694.133 427.463 694.133ZM458.942 703.867C458.942 704.609 458.894 705.28 458.798 705.878H443.677C443.796 707.459 444.383 708.728 445.437 709.685C446.49 710.643 447.783 711.122 449.316 711.122C451.519 711.122 453.075 710.2 453.985 708.357H458.403C457.804 710.176 456.715 711.673 455.135 712.846C453.578 713.996 451.639 714.57 449.316 714.57C447.424 714.57 445.724 714.151 444.215 713.313C442.731 712.451 441.558 711.254 440.696 709.721C439.857 708.165 439.438 706.369 439.438 704.334C439.438 702.298 439.845 700.514 440.66 698.982C441.498 697.425 442.659 696.228 444.144 695.39C445.652 694.552 447.376 694.133 449.316 694.133C451.184 694.133 452.848 694.54 454.308 695.354C455.769 696.168 456.907 697.318 457.721 698.802C458.535 700.263 458.942 701.951 458.942 703.867ZM454.668 702.574C454.644 701.065 454.105 699.856 453.051 698.946C451.998 698.036 450.693 697.581 449.136 697.581C447.723 697.581 446.514 698.036 445.509 698.946C444.503 699.832 443.904 701.041 443.713 702.574H454.668ZM461.607 704.334C461.607 702.298 462.014 700.514 462.828 698.982C463.666 697.425 464.815 696.228 466.276 695.39C467.737 694.552 469.413 694.133 471.304 694.133C473.699 694.133 475.674 694.708 477.231 695.857C478.811 696.982 479.877 698.599 480.428 700.706H476.01C475.651 699.724 475.076 698.958 474.286 698.407C473.495 697.856 472.502 697.581 471.304 697.581C469.628 697.581 468.287 698.18 467.282 699.377C466.3 700.55 465.809 702.203 465.809 704.334C465.809 706.465 466.3 708.129 467.282 709.326C468.287 710.524 469.628 711.122 471.304 711.122C473.675 711.122 475.243 710.081 476.01 707.997H480.428C479.853 710.009 478.775 711.613 477.195 712.81C475.615 713.984 473.651 714.57 471.304 714.57C469.413 714.57 467.737 714.151 466.276 713.313C464.815 712.451 463.666 711.254 462.828 709.721C462.014 708.165 461.607 706.369 461.607 704.334ZM489.285 697.797V708.752C489.285 709.494 489.453 710.033 489.788 710.368C490.147 710.679 490.746 710.835 491.584 710.835H494.098V714.247H490.866C489.022 714.247 487.609 713.816 486.627 712.954C485.646 712.092 485.155 710.691 485.155 708.752V697.797H482.82V694.456H485.155V689.535H489.285V694.456H494.098V697.797H489.285ZM499.956 691.834C499.213 691.834 498.591 691.583 498.088 691.08C497.585 690.577 497.333 689.955 497.333 689.212C497.333 688.47 497.585 687.847 498.088 687.344C498.591 686.842 499.213 686.59 499.956 686.59C500.674 686.59 501.284 686.842 501.787 687.344C502.29 687.847 502.542 688.47 502.542 689.212C502.542 689.955 502.29 690.577 501.787 691.08C501.284 691.583 500.674 691.834 499.956 691.834ZM501.967 694.456V714.247H497.872V694.456H501.967ZM515.927 714.57C514.059 714.57 512.371 714.151 510.863 713.313C509.354 712.451 508.169 711.254 507.307 709.721C506.445 708.165 506.014 706.369 506.014 704.334C506.014 702.322 506.457 700.538 507.343 698.982C508.229 697.425 509.438 696.228 510.971 695.39C512.503 694.552 514.215 694.133 516.107 694.133C517.998 694.133 519.711 694.552 521.243 695.39C522.776 696.228 523.985 697.425 524.871 698.982C525.757 700.538 526.2 702.322 526.2 704.334C526.2 706.345 525.745 708.129 524.835 709.685C523.925 711.242 522.68 712.451 521.099 713.313C519.543 714.151 517.819 714.57 515.927 714.57ZM515.927 711.014C516.981 711.014 517.963 710.763 518.872 710.26C519.806 709.757 520.561 709.003 521.135 707.997C521.71 706.992 521.997 705.77 521.997 704.334C521.997 702.897 521.722 701.688 521.171 700.706C520.621 699.7 519.89 698.946 518.98 698.443C518.07 697.94 517.089 697.689 516.035 697.689C514.981 697.689 514 697.94 513.09 698.443C512.204 698.946 511.497 699.7 510.971 700.706C510.444 701.688 510.18 702.897 510.18 704.334C510.18 706.465 510.719 708.117 511.797 709.29C512.898 710.44 514.275 711.014 515.927 711.014ZM540.233 694.133C541.789 694.133 543.178 694.456 544.399 695.103C545.644 695.749 546.614 696.707 547.309 697.976C548.003 699.245 548.35 700.778 548.35 702.574V714.247H544.292V703.184C544.292 701.412 543.849 700.059 542.963 699.126C542.077 698.168 540.867 697.689 539.335 697.689C537.802 697.689 536.581 698.168 535.671 699.126C534.785 700.059 534.342 701.412 534.342 703.184V714.247H530.248V694.456H534.342V696.719C535.013 695.905 535.863 695.27 536.892 694.815C537.946 694.36 539.059 694.133 540.233 694.133ZM560.757 714.57C559.2 714.57 557.8 714.295 556.554 713.744C555.333 713.17 554.363 712.403 553.645 711.445C552.927 710.464 552.544 709.374 552.496 708.177H556.734C556.806 709.015 557.201 709.721 557.919 710.296C558.662 710.847 559.584 711.122 560.685 711.122C561.834 711.122 562.72 710.907 563.343 710.476C563.989 710.021 564.313 709.446 564.313 708.752C564.313 708.009 563.954 707.459 563.235 707.099C562.541 706.74 561.427 706.345 559.895 705.914C558.41 705.507 557.201 705.112 556.267 704.729C555.333 704.346 554.519 703.759 553.825 702.969C553.154 702.179 552.819 701.137 552.819 699.844C552.819 698.79 553.13 697.833 553.753 696.97C554.375 696.085 555.261 695.39 556.411 694.887C557.584 694.384 558.925 694.133 560.434 694.133C562.684 694.133 564.492 694.708 565.857 695.857C567.246 696.982 567.988 698.527 568.084 700.49H563.989C563.918 699.604 563.558 698.898 562.912 698.371C562.265 697.845 561.391 697.581 560.29 697.581C559.212 697.581 558.386 697.785 557.812 698.192C557.237 698.599 556.95 699.138 556.95 699.808C556.95 700.335 557.141 700.778 557.524 701.137C557.907 701.496 558.374 701.784 558.925 701.999C559.476 702.191 560.29 702.442 561.367 702.753C562.804 703.136 563.978 703.532 564.887 703.939C565.821 704.322 566.623 704.896 567.294 705.663C567.964 706.429 568.312 707.447 568.336 708.716C568.336 709.841 568.024 710.847 567.402 711.733C566.779 712.619 565.893 713.313 564.744 713.816C563.618 714.319 562.289 714.57 560.757 714.57ZM577.25 709.326L572.904 719.24H570.246L572.796 709.326H577.25ZM588.793 701.712C588.793 699.269 589.356 697.078 590.481 695.139C591.63 693.199 593.175 691.691 595.114 690.613C597.078 689.512 599.221 688.961 601.544 688.961C604.202 688.961 606.56 689.619 608.62 690.936C610.703 692.229 612.211 694.073 613.145 696.468H608.224C607.578 695.151 606.68 694.169 605.531 693.522C604.381 692.876 603.052 692.553 601.544 692.553C599.892 692.553 598.419 692.924 597.126 693.666C595.833 694.408 594.815 695.474 594.073 696.863C593.354 698.252 592.995 699.868 592.995 701.712C592.995 703.555 593.354 705.172 594.073 706.561C594.815 707.949 595.833 709.027 597.126 709.793C598.419 710.536 599.892 710.907 601.544 710.907C603.052 710.907 604.381 710.583 605.531 709.937C606.68 709.29 607.578 708.309 608.224 706.992H613.145C612.211 709.386 610.703 711.23 608.62 712.523C606.56 713.816 604.202 714.463 601.544 714.463C599.197 714.463 597.054 713.924 595.114 712.846C593.175 711.745 591.63 710.224 590.481 708.285C589.356 706.345 588.793 704.154 588.793 701.712ZM635.861 694.456V714.247H631.766V711.912C631.12 712.727 630.27 713.373 629.216 713.852C628.187 714.307 627.085 714.534 625.912 714.534C624.355 714.534 622.955 714.211 621.709 713.565C620.488 712.918 619.518 711.96 618.8 710.691C618.106 709.422 617.758 707.89 617.758 706.094V694.456H621.817V705.483C621.817 707.255 622.26 708.62 623.146 709.578C624.032 710.512 625.241 710.979 626.774 710.979C628.306 710.979 629.516 710.512 630.402 709.578C631.312 708.62 631.766 707.255 631.766 705.483V694.456H635.861ZM645.358 687.668V714.247H641.264V687.668H645.358ZM655.511 697.797V708.752C655.511 709.494 655.679 710.033 656.014 710.368C656.373 710.679 656.972 710.835 657.81 710.835H660.324V714.247H657.092C655.248 714.247 653.835 713.816 652.853 712.954C651.872 712.092 651.381 710.691 651.381 708.752V697.797H649.046V694.456H651.381V689.535H655.511V694.456H660.324V697.797H655.511ZM666.182 691.834C665.439 691.834 664.817 691.583 664.314 691.08C663.811 690.577 663.56 689.955 663.56 689.212C663.56 688.47 663.811 687.847 664.314 687.344C664.817 686.842 665.439 686.59 666.182 686.59C666.9 686.59 667.511 686.842 668.013 687.344C668.516 687.847 668.768 688.47 668.768 689.212C668.768 689.955 668.516 690.577 668.013 691.08C667.511 691.583 666.9 691.834 666.182 691.834ZM668.193 694.456V714.247H664.098V694.456H668.193ZM681.219 710.583L686.823 694.456H691.169L683.626 714.247H678.741L671.234 694.456H675.616L681.219 710.583ZM692.899 704.262C692.899 702.274 693.306 700.514 694.12 698.982C694.958 697.449 696.084 696.264 697.496 695.426C698.933 694.564 700.514 694.133 702.238 694.133C703.794 694.133 705.147 694.444 706.296 695.067C707.47 695.665 708.404 696.42 709.098 697.33V694.456H713.229V714.247H709.098V711.302C708.404 712.236 707.458 713.014 706.26 713.636C705.063 714.259 703.698 714.57 702.166 714.57C700.466 714.57 698.909 714.139 697.496 713.277C696.084 712.391 694.958 711.17 694.12 709.614C693.306 708.033 692.899 706.249 692.899 704.262ZM709.098 704.334C709.098 702.969 708.811 701.784 708.236 700.778C707.685 699.772 706.955 699.006 706.045 698.479C705.135 697.952 704.153 697.689 703.1 697.689C702.046 697.689 701.064 697.952 700.154 698.479C699.244 698.982 698.502 699.736 697.927 700.742C697.377 701.724 697.101 702.897 697.101 704.262C697.101 705.627 697.377 706.824 697.927 707.854C698.502 708.883 699.244 709.674 700.154 710.224C701.088 710.751 702.07 711.014 703.1 711.014C704.153 711.014 705.135 710.751 706.045 710.224C706.955 709.697 707.685 708.931 708.236 707.925C708.811 706.896 709.098 705.699 709.098 704.334ZM723.384 697.797V708.752C723.384 709.494 723.551 710.033 723.887 710.368C724.246 710.679 724.845 710.835 725.683 710.835H728.197V714.247H724.964C723.12 714.247 721.708 713.816 720.726 712.954C719.744 712.092 719.253 710.691 719.253 708.752V697.797H716.919V694.456H719.253V689.535H723.384V694.456H728.197V697.797H723.384ZM734.054 691.834C733.312 691.834 732.689 691.583 732.186 691.08C731.683 690.577 731.432 689.955 731.432 689.212C731.432 688.47 731.683 687.847 732.186 687.344C732.689 686.842 733.312 686.59 734.054 686.59C734.772 686.59 735.383 686.842 735.886 687.344C736.389 687.847 736.64 688.47 736.64 689.212C736.64 689.955 736.389 690.577 735.886 691.08C735.383 691.583 734.772 691.834 734.054 691.834ZM736.065 694.456V714.247H731.971V694.456H736.065ZM751.427 694.133C752.983 694.133 754.372 694.456 755.593 695.103C756.838 695.749 757.808 696.707 758.502 697.976C759.197 699.245 759.544 700.778 759.544 702.574V714.247H755.485V703.184C755.485 701.412 755.042 700.059 754.156 699.126C753.27 698.168 752.061 697.689 750.529 697.689C748.996 697.689 747.775 698.168 746.865 699.126C745.979 700.059 745.536 701.412 745.536 703.184V714.247H741.441V694.456H745.536V696.719C746.206 695.905 747.057 695.27 748.086 694.815C749.14 694.36 750.253 694.133 751.427 694.133ZM772.741 694.133C774.273 694.133 775.626 694.444 776.8 695.067C777.997 695.665 778.931 696.42 779.601 697.33V694.456H783.732V714.57C783.732 716.39 783.349 718.006 782.582 719.419C781.816 720.856 780.703 721.981 779.242 722.796C777.805 723.61 776.081 724.017 774.07 724.017C771.388 724.017 769.161 723.382 767.389 722.113C765.617 720.868 764.611 719.168 764.372 717.013H768.431C768.742 718.042 769.4 718.869 770.406 719.491C771.436 720.138 772.657 720.461 774.07 720.461C775.722 720.461 777.051 719.958 778.057 718.952C779.086 717.947 779.601 716.486 779.601 714.57V711.266C778.907 712.2 777.961 712.99 776.764 713.636C775.59 714.259 774.249 714.57 772.741 714.57C771.017 714.57 769.436 714.139 768 713.277C766.587 712.391 765.461 711.17 764.623 709.614C763.809 708.033 763.402 706.249 763.402 704.262C763.402 702.274 763.809 700.514 764.623 698.982C765.461 697.449 766.587 696.264 768 695.426C769.436 694.564 771.017 694.133 772.741 694.133ZM779.601 704.334C779.601 702.969 779.314 701.784 778.739 700.778C778.188 699.772 777.458 699.006 776.548 698.479C775.638 697.952 774.656 697.689 773.603 697.689C772.549 697.689 771.568 697.952 770.658 698.479C769.748 698.982 769.005 699.736 768.431 700.742C767.88 701.724 767.605 702.897 767.605 704.262C767.605 705.627 767.88 706.824 768.431 707.854C769.005 708.883 769.748 709.674 770.658 710.224C771.591 710.751 772.573 711.014 773.603 711.014C774.656 711.014 775.638 710.751 776.548 710.224C777.458 709.697 778.188 708.931 778.739 707.925C779.314 706.896 779.601 705.699 779.601 704.334ZM806.665 714.498C804.989 714.498 803.481 714.211 802.14 713.636C800.799 713.038 799.745 712.2 798.979 711.122C798.213 710.045 797.83 708.788 797.83 707.351H802.212C802.307 708.428 802.726 709.314 803.469 710.009C804.235 710.703 805.301 711.05 806.665 711.05C808.078 711.05 809.18 710.715 809.97 710.045C810.76 709.35 811.155 708.464 811.155 707.387C811.155 706.549 810.904 705.866 810.401 705.339C809.922 704.813 809.311 704.406 808.569 704.118C807.851 703.831 806.845 703.52 805.552 703.184C803.924 702.753 802.595 702.322 801.565 701.891C800.559 701.436 799.697 700.742 798.979 699.808C798.261 698.874 797.901 697.629 797.901 696.073C797.901 694.636 798.261 693.379 798.979 692.301C799.697 691.224 800.703 690.398 801.996 689.823C803.289 689.248 804.786 688.961 806.486 688.961C808.904 688.961 810.88 689.571 812.412 690.793C813.969 691.99 814.831 693.642 814.998 695.749H810.473C810.401 694.839 809.97 694.061 809.18 693.415C808.389 692.768 807.348 692.445 806.055 692.445C804.881 692.445 803.924 692.744 803.181 693.343C802.439 693.941 802.068 694.803 802.068 695.929C802.068 696.695 802.295 697.33 802.75 697.833C803.229 698.311 803.828 698.695 804.546 698.982C805.265 699.269 806.246 699.581 807.492 699.916C809.144 700.371 810.485 700.826 811.514 701.281C812.568 701.736 813.454 702.442 814.172 703.4C814.915 704.334 815.286 705.591 815.286 707.171C815.286 708.44 814.939 709.638 814.244 710.763C813.574 711.888 812.58 712.798 811.263 713.493C809.97 714.163 808.437 714.498 806.665 714.498ZM838.04 694.456V714.247H833.946V711.912C833.299 712.727 832.449 713.373 831.396 713.852C830.366 714.307 829.264 714.534 828.091 714.534C826.535 714.534 825.134 714.211 823.889 713.565C822.667 712.918 821.698 711.96 820.979 710.691C820.285 709.422 819.938 707.89 819.938 706.094V694.456H823.996V705.483C823.996 707.255 824.439 708.62 825.325 709.578C826.211 710.512 827.421 710.979 828.953 710.979C830.486 710.979 831.695 710.512 832.581 709.578C833.491 708.62 833.946 707.255 833.946 705.483V694.456H838.04ZM842.078 704.334C842.078 702.298 842.485 700.514 843.299 698.982C844.137 697.425 845.287 696.228 846.747 695.39C848.208 694.552 849.884 694.133 851.776 694.133C854.17 694.133 856.146 694.708 857.702 695.857C859.283 696.982 860.348 698.599 860.899 700.706H856.481C856.122 699.724 855.547 698.958 854.757 698.407C853.967 697.856 852.973 697.581 851.776 697.581C850.1 697.581 848.759 698.18 847.753 699.377C846.771 700.55 846.28 702.203 846.28 704.334C846.28 706.465 846.771 708.129 847.753 709.326C848.759 710.524 850.1 711.122 851.776 711.122C854.147 711.122 855.715 710.081 856.481 707.997H860.899C860.324 710.009 859.247 711.613 857.666 712.81C856.086 713.984 854.123 714.57 851.776 714.57C849.884 714.57 848.208 714.151 846.747 713.313C845.287 712.451 844.137 711.254 843.299 709.721C842.485 708.165 842.078 706.369 842.078 704.334ZM863.615 704.334C863.615 702.298 864.022 700.514 864.836 698.982C865.674 697.425 866.824 696.228 868.284 695.39C869.745 694.552 871.421 694.133 873.313 694.133C875.707 694.133 877.683 694.708 879.239 695.857C880.82 696.982 881.885 698.599 882.436 700.706H878.018C877.659 699.724 877.084 698.958 876.294 698.407C875.504 697.856 874.51 697.581 873.313 697.581C871.637 697.581 870.296 698.18 869.29 699.377C868.308 700.55 867.817 702.203 867.817 704.334C867.817 706.465 868.308 708.129 869.29 709.326C870.296 710.524 871.637 711.122 873.313 711.122C875.683 711.122 877.252 710.081 878.018 707.997H882.436C881.861 710.009 880.784 711.613 879.203 712.81C877.623 713.984 875.659 714.57 873.313 714.57C871.421 714.57 869.745 714.151 868.284 713.313C866.824 712.451 865.674 711.254 864.836 709.721C864.022 708.165 863.615 706.369 863.615 704.334ZM904.655 703.867C904.655 704.609 904.607 705.28 904.511 705.878H889.39C889.51 707.459 890.096 708.728 891.15 709.685C892.204 710.643 893.497 711.122 895.029 711.122C897.232 711.122 898.788 710.2 899.698 708.357H904.116C903.518 710.176 902.428 711.673 900.848 712.846C899.291 713.996 897.352 714.57 895.029 714.57C893.137 714.57 891.437 714.151 889.929 713.313C888.444 712.451 887.271 711.254 886.409 709.721C885.571 708.165 885.152 706.369 885.152 704.334C885.152 702.298 885.559 700.514 886.373 698.982C887.211 697.425 888.372 696.228 889.857 695.39C891.365 694.552 893.089 694.133 895.029 694.133C896.897 694.133 898.561 694.54 900.022 695.354C901.482 696.168 902.62 697.318 903.434 698.802C904.248 700.263 904.655 701.951 904.655 703.867ZM900.381 702.574C900.357 701.065 899.818 699.856 898.765 698.946C897.711 698.036 896.406 697.581 894.849 697.581C893.437 697.581 892.227 698.036 891.222 698.946C890.216 699.832 889.617 701.041 889.426 702.574H900.381ZM915.868 714.57C914.312 714.57 912.911 714.295 911.666 713.744C910.445 713.17 909.475 712.403 908.756 711.445C908.038 710.464 907.655 709.374 907.607 708.177H911.845C911.917 709.015 912.312 709.721 913.031 710.296C913.773 710.847 914.695 711.122 915.796 711.122C916.946 711.122 917.832 710.907 918.454 710.476C919.101 710.021 919.424 709.446 919.424 708.752C919.424 708.009 919.065 707.459 918.347 707.099C917.652 706.74 916.539 706.345 915.006 705.914C913.522 705.507 912.312 705.112 911.378 704.729C910.445 704.346 909.63 703.759 908.936 702.969C908.266 702.179 907.93 701.137 907.93 699.844C907.93 698.79 908.242 697.833 908.864 696.97C909.487 696.085 910.373 695.39 911.522 694.887C912.695 694.384 914.036 694.133 915.545 694.133C917.796 694.133 919.604 694.708 920.969 695.857C922.357 696.982 923.1 698.527 923.196 700.49H919.101C919.029 699.604 918.67 698.898 918.023 698.371C917.377 697.845 916.503 697.581 915.401 697.581C914.324 697.581 913.498 697.785 912.923 698.192C912.348 698.599 912.061 699.138 912.061 699.808C912.061 700.335 912.252 700.778 912.636 701.137C913.019 701.496 913.486 701.784 914.036 701.999C914.587 702.191 915.401 702.442 916.479 702.753C917.916 703.136 919.089 703.532 919.999 703.939C920.933 704.322 921.735 704.896 922.405 705.663C923.076 706.429 923.423 707.447 923.447 708.716C923.447 709.841 923.136 710.847 922.513 711.733C921.89 712.619 921.005 713.313 919.855 713.816C918.73 714.319 917.401 714.57 915.868 714.57ZM935.055 714.57C933.498 714.57 932.098 714.295 930.853 713.744C929.631 713.17 928.662 712.403 927.943 711.445C927.225 710.464 926.842 709.374 926.794 708.177H931.032C931.104 709.015 931.499 709.721 932.217 710.296C932.96 710.847 933.882 711.122 934.983 711.122C936.132 711.122 937.018 710.907 937.641 710.476C938.288 710.021 938.611 709.446 938.611 708.752C938.611 708.009 938.252 707.459 937.533 707.099C936.839 706.74 935.725 706.345 934.193 705.914C932.708 705.507 931.499 705.112 930.565 704.729C929.631 704.346 928.817 703.759 928.123 702.969C927.452 702.179 927.117 701.137 927.117 699.844C927.117 698.79 927.428 697.833 928.051 696.97C928.674 696.085 929.559 695.39 930.709 694.887C931.882 694.384 933.223 694.133 934.732 694.133C936.983 694.133 938.79 694.708 940.155 695.857C941.544 696.982 942.286 698.527 942.382 700.49H938.288C938.216 699.604 937.857 698.898 937.21 698.371C936.564 697.845 935.69 697.581 934.588 697.581C933.51 697.581 932.684 697.785 932.11 698.192C931.535 698.599 931.248 699.138 931.248 699.808C931.248 700.335 931.439 700.778 931.822 701.137C932.205 701.496 932.672 701.784 933.223 701.999C933.774 702.191 934.588 702.442 935.666 702.753C937.102 703.136 938.276 703.532 939.186 703.939C940.119 704.322 940.922 704.896 941.592 705.663C942.262 706.429 942.61 707.447 942.634 708.716C942.634 709.841 942.322 710.847 941.7 711.733C941.077 712.619 940.191 713.313 939.042 713.816C937.916 714.319 936.587 714.57 935.055 714.57Z" fill="white"/>
<g filter="url(#filter0_i_32_91)">
<path d="M383.917 541.459C399.646 545.259 409.589 561.313 402.483 575.851C394.358 592.472 382.848 607.341 368.575 619.45C346.8 637.923 319.714 649.021 291.211 651.148C262.709 653.275 234.259 646.322 209.952 631.289C185.645 616.255 166.733 593.915 155.935 567.481C145.138 541.048 143.011 511.882 149.86 484.177C156.709 456.473 172.182 431.657 194.054 413.298C215.926 394.939 243.07 383.983 271.583 382.005C290.293 380.706 308.96 383.318 326.43 389.551C341.659 394.984 345.768 413.4 337.177 427.099C328.598 440.778 310.439 444.252 294.546 441.397C288.362 440.285 282.028 439.932 275.686 440.372C259.538 441.493 244.165 447.698 231.777 458.095C219.39 468.493 210.627 482.548 206.748 498.238C202.869 513.929 204.073 530.447 210.189 545.418C216.304 560.388 227.015 573.041 240.781 581.555C254.548 590.069 270.66 594.007 286.803 592.802C302.945 591.598 318.285 585.312 330.618 574.85C335.431 570.766 339.69 566.129 343.319 561.057C352.736 547.897 368.187 537.658 383.917 541.459Z" fill="#FF6B00"/>
</g>
<path d="M383.917 541.459C399.646 545.259 409.589 561.313 402.483 575.851C394.358 592.472 382.848 607.341 368.575 619.45C346.8 637.923 319.714 649.021 291.211 651.148C262.709 653.275 234.259 646.322 209.952 631.289C185.645 616.255 166.733 593.915 155.935 567.481C145.138 541.048 143.011 511.882 149.86 484.177C156.709 456.473 172.182 431.657 194.054 413.298C215.926 394.939 243.07 383.983 271.583 382.005C290.293 380.706 308.96 383.318 326.43 389.551C341.659 394.984 345.768 413.4 337.177 427.099C328.598 440.778 310.439 444.252 294.546 441.397C288.362 440.285 282.028 439.932 275.686 440.372C259.538 441.493 244.165 447.698 231.777 458.095C219.39 468.493 210.627 482.548 206.748 498.238C202.869 513.929 204.073 530.447 210.189 545.418C216.304 560.388 227.015 573.041 240.781 581.555C254.548 590.069 270.66 594.007 286.803 592.802C302.945 591.598 318.285 585.312 330.618 574.85C335.431 570.766 339.69 566.129 343.319 561.057C352.736 547.897 368.187 537.658 383.917 541.459Z" stroke="white" stroke-width="13.7847"/>
<rect width="107.045" height="76.5411" transform="matrix(0.787772 -0.615967 0.617373 0.786671 149.057 581.987)" fill="#273F87"/>
<g filter="url(#filter1_i_32_91)">
<path d="M303.292 481.817L173.1 585.38C164.367 592.327 162.454 604.827 168.712 614.066C174.704 622.912 186.982 624.74 195.292 618.022L319.689 517.465C323.876 514.08 329.097 512.231 334.481 512.227L412.087 512.158L412.099 498.797C411.945 486.502 401.93 476.62 389.634 476.631L317.94 476.694C312.619 476.698 307.456 478.504 303.292 481.817Z" fill="#FF6B00"/>
</g>
<path d="M303.292 481.817L173.1 585.38C164.367 592.327 162.454 604.827 168.712 614.066C174.704 622.912 186.982 624.74 195.292 618.022L319.689 517.465C323.876 514.08 329.097 512.231 334.481 512.227L412.087 512.158L412.099 498.797C411.945 486.502 401.93 476.62 389.634 476.631L317.94 476.694C312.619 476.698 307.456 478.504 303.292 481.817Z" stroke="white" stroke-width="11.9467"/>
<path d="M471.766 527.546C462.662 527.546 455.333 523.967 449.779 516.81C444.225 509.595 441.448 497.915 441.448 481.768V416.064C441.448 409.308 442.077 403.267 443.337 397.942C444.654 392.617 446.658 388.122 449.349 384.457C452.098 380.736 455.648 377.93 459.999 376.04C464.351 374.094 469.59 373.12 475.717 373.12C482.359 373.12 487.77 374.122 491.949 376.126C496.129 378.073 499.336 380.936 501.569 384.715C503.859 388.437 505.434 393.018 506.293 398.457C507.152 403.897 507.581 410.052 507.581 416.923V427.659H486.109V411.856C486.109 405.042 485.393 400.203 483.962 397.341C482.588 394.478 479.954 393.046 476.06 393.046C471.766 393.046 468.788 394.735 467.128 398.114C465.467 401.435 464.637 407.361 464.637 415.892V481.424C464.637 490.929 465.324 497.743 466.699 501.866C468.13 505.931 471.079 507.964 475.545 507.964C479.897 507.964 482.96 505.874 484.735 501.694C486.567 497.457 487.483 490.414 487.483 480.566V460.21H475.889V443.462H507.581V526H497.274L493.753 511.141C492.493 516.352 489.802 520.389 485.68 523.252C481.614 526.115 476.976 527.546 471.766 527.546ZM529.225 526V374.838H567.273C575.174 374.838 581.072 376.384 584.966 379.476C588.859 382.568 591.407 387.091 592.61 393.046C593.869 399.001 594.499 406.273 594.499 414.862C594.499 423.737 593.583 430.722 591.751 435.818C589.976 440.857 586.311 444.235 580.757 445.953C583.391 446.411 585.595 447.499 587.37 449.217C589.145 450.877 590.577 453.339 591.665 456.603C592.753 459.809 593.526 463.961 593.984 469.057C594.499 474.095 594.757 480.279 594.757 487.608C594.757 488.181 594.757 489.784 594.757 492.418C594.757 495.052 594.757 498.172 594.757 501.78C594.814 505.33 594.871 508.88 594.929 512.43C594.986 515.98 595.072 519.014 595.186 521.534C595.301 524.053 595.444 525.542 595.616 526H572.598C572.426 525.714 572.283 524.254 572.168 521.62C572.111 518.929 572.025 515.522 571.911 511.399C571.853 507.277 571.796 502.839 571.739 498.087C571.739 493.334 571.739 488.668 571.739 484.087C571.739 479.449 571.739 475.355 571.739 471.805C571.739 467.282 571.395 463.875 570.708 461.584C570.078 459.237 568.876 457.605 567.101 456.689C565.383 455.773 562.893 455.229 559.629 455.057L552.242 454.627V526H529.225ZM552.328 436.763H561.518C564.324 436.763 566.443 436.133 567.874 434.873C569.363 433.614 570.365 431.295 570.88 427.916C571.453 424.538 571.739 419.671 571.739 413.316V412.371C571.739 407.046 571.481 402.952 570.966 400.089C570.451 397.226 569.363 395.251 567.702 394.163C566.099 393.075 563.58 392.531 560.144 392.531H552.328V436.763ZM646.203 527.718C638.359 527.718 631.946 526.057 626.965 522.736C622.04 519.415 618.404 514.491 616.057 507.964C613.709 501.436 612.536 493.363 612.536 483.743V414.604C612.536 405.901 613.681 398.457 615.971 392.273C618.261 386.089 621.897 381.337 626.879 378.016C631.86 374.695 638.388 373.034 646.461 373.034C652.53 373.034 657.655 373.979 661.835 375.869C666.015 377.758 669.393 380.507 671.97 384.114C674.546 387.664 676.407 392.016 677.552 397.169C678.755 402.265 679.356 408.076 679.356 414.604V483.743C679.356 493.363 678.211 501.436 675.92 507.964C673.687 514.491 670.137 519.415 665.27 522.736C660.403 526.057 654.048 527.718 646.203 527.718ZM646.203 507.792C649.066 507.792 651.214 506.933 652.645 505.215C654.076 503.497 655.021 500.892 655.479 497.399C655.995 493.849 656.252 489.383 656.252 484.001V413.573C656.252 406.989 655.622 401.921 654.363 398.371C653.16 394.764 650.526 392.96 646.461 392.96C642.281 392.96 639.447 394.707 637.958 398.199C636.469 401.635 635.725 406.731 635.725 413.487V484.001C635.725 489.498 635.954 494.021 636.412 497.571C636.928 501.064 637.93 503.641 639.418 505.301C640.964 506.962 643.226 507.792 646.203 507.792ZM711.392 526L692.926 374.838H713.539L724.619 482.541L738.704 374.838H757.256L771.427 482.541L781.219 374.838H801.917L784.568 526H761.636L748.238 425.512L734.324 526H711.392ZM825.021 526V394.764H807.328V374.838H864.959V394.764H847.953V526H825.021ZM877.928 526V374.838H900.946V435.99H921.559V374.838H944.577V526H921.559V455.744H900.946V526H877.928Z" fill="white"/>
<path d="M446.903 646V542.264H481.678V555.88H462.699V586.057H480.735V599.378H462.699V632.385H482.385V646H446.903ZM512.976 647.179C508.653 647.179 505.038 646.511 502.131 645.175C499.262 643.8 496.983 641.815 495.293 639.222C493.643 636.589 492.464 633.406 491.757 629.673C491.05 625.901 490.696 621.618 490.696 616.824V607.571H505.667V618.003C505.667 623.583 506.139 627.591 507.082 630.027C508.025 632.463 509.891 633.681 512.681 633.681C514.567 633.681 515.982 633.249 516.925 632.385C517.907 631.481 518.555 630.066 518.87 628.141C519.223 626.176 519.4 623.622 519.4 620.479C519.4 616.589 518.575 613.033 516.925 609.81C515.314 606.588 512.858 603.248 509.557 599.791L501.895 591.892C499.773 589.692 497.848 587.354 496.119 584.879C494.429 582.403 493.073 579.652 492.052 576.627C491.069 573.562 490.578 570.143 490.578 566.371C490.578 560.909 491.246 556.292 492.582 552.52C493.918 548.748 496.178 545.899 499.36 543.974C502.543 542.009 506.905 541.027 512.445 541.027C516.61 541.027 520.029 541.675 522.701 542.972C525.412 544.229 527.514 546.096 529.008 548.571C530.54 551.007 531.621 553.994 532.249 557.53C532.878 561.027 533.192 565.035 533.192 569.554V575.979H518.634V568.552C518.634 565.408 518.457 562.795 518.104 560.713C517.789 558.63 517.18 557.078 516.276 556.057C515.373 554.996 514.056 554.465 512.327 554.465C510.677 554.465 509.341 554.838 508.319 555.585C507.298 556.292 506.551 557.412 506.08 558.945C505.647 560.438 505.431 562.383 505.431 564.78C505.431 566.941 505.706 568.807 506.256 570.379C506.807 571.951 507.651 573.464 508.791 574.918C509.93 576.371 511.345 578.002 513.035 579.81L521.581 589.063C525.668 593.464 528.85 598.042 531.129 602.797C533.408 607.551 534.548 612.856 534.548 618.71C534.548 624.919 533.88 630.145 532.544 634.389C531.208 638.593 528.968 641.776 525.825 643.937C522.681 646.098 518.398 647.179 512.976 647.179ZM566.965 647.179C561.936 647.179 557.751 646.02 554.411 643.701C551.071 641.383 548.556 638.004 546.867 633.564C545.216 629.084 544.391 623.681 544.391 617.355V572.147C544.391 567.393 544.784 563.11 545.57 559.298C546.356 555.487 547.633 552.225 549.401 549.514C551.169 546.803 553.527 544.72 556.474 543.266C559.421 541.813 563.056 541.086 567.378 541.086C571.307 541.086 574.647 541.734 577.398 543.031C580.188 544.288 582.447 546.115 584.176 548.512C585.944 550.909 587.221 553.817 588.007 557.235C588.832 560.615 589.245 564.426 589.245 568.67V582.934H573.979V569.672C573.979 564.564 573.547 560.811 572.683 558.414C571.818 555.978 570.089 554.76 567.496 554.76C564.627 554.76 562.702 556.076 561.72 558.709C560.777 561.302 560.305 564.937 560.305 569.613V618.062C560.305 621.677 560.501 624.644 560.894 626.962C561.327 629.241 562.034 630.931 563.016 632.031C563.999 633.092 565.374 633.622 567.142 633.622C569.814 633.622 571.622 632.365 572.565 629.85C573.508 627.335 573.979 623.347 573.979 617.885V603.032H589.481V617.708C589.481 624.271 588.714 629.752 587.182 634.153C585.65 638.515 583.213 641.776 579.873 643.937C576.573 646.098 572.27 647.179 566.965 647.179ZM596.73 646L611.524 542.264H632.389L648.127 646H633.391L630.916 627.493H614.177L611.937 646H596.73ZM615.709 614.82H629.266L622.311 562.717H622.075L615.709 614.82ZM657.557 646V542.264H673.353V632.562H693.334V646H657.557ZM695.751 646L710.545 542.264H731.41L747.147 646H732.412L729.936 627.493H713.197L710.957 646H695.751ZM714.73 614.82H728.286L721.331 562.717H721.095L714.73 614.82ZM759.053 646V555.939H746.911V542.264H786.46V555.939H774.79V646H759.053ZM817.168 647.179C811.785 647.179 807.384 646.039 803.966 643.76C800.586 641.481 798.091 638.102 796.48 633.622C794.869 629.143 794.064 623.603 794.064 617.001V569.554C794.064 563.581 794.85 558.473 796.421 554.229C797.993 549.986 800.488 546.724 803.907 544.445C807.325 542.166 811.805 541.027 817.345 541.027C821.51 541.027 825.027 541.675 827.896 542.972C830.764 544.268 833.082 546.155 834.851 548.63C836.619 551.066 837.896 554.053 838.682 557.589C839.507 561.086 839.919 565.074 839.919 569.554V617.001C839.919 623.603 839.134 629.143 837.562 633.622C836.029 638.102 833.593 641.481 830.253 643.76C826.913 646.039 822.552 647.179 817.168 647.179ZM817.168 633.505C819.133 633.505 820.607 632.915 821.589 631.736C822.571 630.558 823.22 628.77 823.534 626.373C823.888 623.937 824.064 620.872 824.064 617.178V568.847C824.064 564.328 823.632 560.85 822.768 558.414C821.943 555.939 820.135 554.701 817.345 554.701C814.477 554.701 812.532 555.899 811.51 558.296C810.488 560.654 809.978 564.151 809.978 568.788V617.178C809.978 620.95 810.135 624.054 810.449 626.491C810.803 628.888 811.49 630.656 812.512 631.795C813.573 632.935 815.125 633.505 817.168 633.505ZM854.301 646V542.264H880.412C885.834 542.264 889.882 543.325 892.553 545.447C895.225 547.569 896.974 550.673 897.799 554.76C898.664 558.846 899.096 563.837 899.096 569.731C899.096 575.821 898.467 580.615 897.21 584.112C895.992 587.57 893.477 589.888 889.665 591.067C891.473 591.382 892.986 592.128 894.204 593.307C895.422 594.447 896.404 596.136 897.151 598.376C897.897 600.576 898.428 603.425 898.742 606.922C899.096 610.38 899.273 614.624 899.273 619.654C899.273 620.046 899.273 621.147 899.273 622.954C899.273 624.762 899.273 626.903 899.273 629.379C899.312 631.815 899.351 634.251 899.391 636.687C899.43 639.124 899.489 641.206 899.567 642.935C899.646 644.664 899.744 645.686 899.862 646H884.066C883.948 645.804 883.85 644.802 883.771 642.994C883.732 641.147 883.673 638.809 883.595 635.98C883.555 633.151 883.516 630.106 883.477 626.844C883.477 623.583 883.477 620.38 883.477 617.237C883.477 614.054 883.477 611.245 883.477 608.808C883.477 605.704 883.241 603.366 882.769 601.795C882.337 600.183 881.512 599.064 880.294 598.435C879.115 597.806 877.406 597.433 875.166 597.315L870.097 597.02V646H854.301ZM870.156 584.761H876.463C878.388 584.761 879.842 584.328 880.824 583.464C881.846 582.6 882.534 581.008 882.887 578.69C883.28 576.371 883.477 573.031 883.477 568.67V568.022C883.477 564.367 883.3 561.558 882.946 559.593C882.593 557.628 881.846 556.273 880.706 555.526C879.606 554.78 877.877 554.406 875.52 554.406H870.156V584.761ZM931.69 647.179C927.368 647.179 923.753 646.511 920.845 645.175C917.977 643.8 915.698 641.815 914.008 639.222C912.358 636.589 911.179 633.406 910.471 629.673C909.764 625.901 909.411 621.618 909.411 616.824V607.571H924.381V618.003C924.381 623.583 924.853 627.591 925.796 630.027C926.739 632.463 928.606 633.681 931.395 633.681C933.281 633.681 934.696 633.249 935.639 632.385C936.621 631.481 937.27 630.066 937.584 628.141C937.938 626.176 938.115 623.622 938.115 620.479C938.115 616.589 937.289 613.033 935.639 609.81C934.028 606.588 931.572 603.248 928.272 599.791L920.609 591.892C918.487 589.692 916.562 587.354 914.833 584.879C913.143 582.403 911.788 579.652 910.766 576.627C909.784 573.562 909.293 570.143 909.293 566.371C909.293 560.909 909.961 556.292 911.297 552.52C912.633 548.748 914.892 545.899 918.075 543.974C921.258 542.009 925.619 541.027 931.16 541.027C935.325 541.027 938.743 541.675 941.415 542.972C944.127 544.229 946.229 546.096 947.722 548.571C949.254 551.007 950.335 553.994 950.964 557.53C951.592 561.027 951.907 565.035 951.907 569.554V575.979H937.348V568.552C937.348 565.408 937.172 562.795 936.818 560.713C936.504 558.63 935.895 557.078 934.991 556.057C934.087 554.996 932.771 554.465 931.042 554.465C929.391 554.465 928.055 554.838 927.034 555.585C926.012 556.292 925.266 557.412 924.794 558.945C924.362 560.438 924.146 562.383 924.146 564.78C924.146 566.941 924.421 568.807 924.971 570.379C925.521 571.951 926.366 573.464 927.505 574.918C928.645 576.371 930.059 578.002 931.749 579.81L940.295 589.063C944.382 593.464 947.565 598.042 949.844 602.797C952.123 607.551 953.262 612.856 953.262 618.71C953.262 624.919 952.594 630.145 951.258 634.389C949.922 638.593 947.683 641.776 944.539 643.937C941.396 646.098 937.113 647.179 931.69 647.179Z" fill="white"/>
<defs>
<filter id="filter0_i_32_91" x="139.03" y="374.788" width="284.869" height="295.575" filterUnits="userSpaceOnUse" color-interpolation-filters="sRGB">
<feFlood flood-opacity="0" result="BackgroundImageFix"/>
<feBlend mode="normal" in="SourceGraphic" in2="BackgroundImageFix" result="shape"/>
<feColorMatrix in="SourceAlpha" type="matrix" values="0 0 0 0 0 0 0 0 0 0 0 0 0 0 0 0 0 0 127 0" result="hardAlpha"/>
<feOffset dx="18.3796" dy="11.9467"/>
<feGaussianBlur stdDeviation="6.06525"/>
<feComposite in2="hardAlpha" operator="arithmetic" k2="-1" k3="1"/>
<feColorMatrix type="matrix" values="0 0 0 0 0 0 0 0 0 0 0 0 0 0 0 0 0 0 0.25 0"/>
<feBlend mode="normal" in2="shape" result="effect1_innerShadow_32_91"/>
</filter>
<filter id="filter1_i_32_91" x="159.064" y="470.657" width="271.138" height="169.344" filterUnits="userSpaceOnUse" color-interpolation-filters="sRGB">
<feFlood flood-opacity="0" result="BackgroundImageFix"/>
<feBlend mode="normal" in="SourceGraphic" in2="BackgroundImageFix" result="shape"/>
<feColorMatrix in="SourceAlpha" type="matrix" values="0 0 0 0 0 0 0 0 0 0 0 0 0 0 0 0 0 0 127 0" result="hardAlpha"/>
<feOffset dx="18.3796" dy="11.9467"/>
<feGaussianBlur stdDeviation="6.06525"/>
<feComposite in2="hardAlpha" operator="arithmetic" k2="-1" k3="1"/>
<feColorMatrix type="matrix" values="0 0 0 0 0 0 0 0 0 0 0 0 0 0 0 0 0 0 0.25 0"/>
<feBlend mode="normal" in2="shape" result="effect1_innerShadow_32_91"/>
</filter>
</defs>
</svg>
